<svg xmlns="http://www.w3.org/2000/svg" viewBox="0 0 40 40">
  <path d="M 7.374 15.634 L 11.822 15.634 C 13.128 15.645 14.074 16.021 14.66 16.763 C 15.249 17.504 15.44 18.517 15.243 19.801 C 15.164 20.387 14.992 20.963 14.729 21.527 C 14.472 22.092 14.118 22.601 13.664 23.055 C 13.113 23.63 12.521 23.995 11.888 24.15 C 11.258 24.306 10.604 24.383 9.93 24.383 L 7.938 24.383 L 7.309 27.537 L 5 27.537 L 7.374 15.634 M 9.316 17.526 L 8.32 22.507 C 8.386 22.518 8.452 22.523 8.518 22.523 C 8.596 22.523 8.674 22.523 8.753 22.523 C 9.814 22.534 10.698 22.429 11.409 22.208 C 12.117 21.976 12.593 21.168 12.834 19.784 C 13.034 18.622 12.834 17.952 12.239 17.775 C 11.65 17.598 10.914 17.515 10.031 17.526 C 9.896 17.537 9.771 17.543 9.648 17.543 C 9.539 17.543 9.42 17.543 9.301 17.543 L 9.316 17.526" style="stroke-width: 0.083;"></path>
  <path d="M 17.871 12.463 L 20.161 12.463 L 19.515 15.634 L 21.573 15.634 C 22.701 15.656 23.544 15.888 24.098 16.331 C 24.662 16.774 24.828 17.615 24.596 18.854 L 23.481 24.383 L 21.157 24.383 L 22.222 19.104 C 22.331 18.55 22.297 18.157 22.122 17.925 C 21.943 17.692 21.561 17.576 20.975 17.576 L 19.133 17.56 L 17.771 24.383 L 15.481 24.383 L 17.871 12.463" style="stroke-width: 0.083;"></path>
  <path d="M 27.055 15.634 L 31.503 15.634 C 32.809 15.645 33.755 16.021 34.344 16.763 C 34.93 17.504 35.124 18.517 34.924 19.801 C 34.849 20.387 34.676 20.963 34.41 21.527 C 34.156 22.092 33.802 22.601 33.348 23.055 C 32.794 23.63 32.202 23.995 31.572 24.15 C 30.939 24.306 30.288 24.383 29.611 24.383 L 27.619 24.383 L 26.989 27.537 L 24.681 27.537 L 27.055 15.634 M 28.997 17.526 L 28.001 22.507 C 28.067 22.518 28.136 22.523 28.202 22.523 C 28.277 22.523 28.355 22.523 28.433 22.523 C 29.495 22.534 30.382 22.429 31.09 22.208 C 31.798 21.976 32.274 21.168 32.518 19.784 C 32.715 18.622 32.518 17.952 31.92 17.775 C 31.334 17.598 30.598 17.515 29.711 17.526 C 29.58 17.537 29.451 17.543 29.329 17.543 C 29.22 17.543 29.104 17.543 28.982 17.543 L 28.997 17.526" style="stroke-width: 0.083;"></path>
</svg>