<svg xmlns="http://www.w3.org/2000/svg" version="1.1" viewBox="0 0 40 40">
  <path d="M 11.266 13.641 C 11.301 13.667 11.363 13.684 11.301 13.737 C 11.257 13.799 11.205 13.852 11.17 13.922 C 11.135 13.983 11.108 14 11.056 13.957 C 11.126 13.843 11.196 13.737 11.265 13.641 L 11.266 13.641 Z M 28.909 22.852 C 28.909 22.878 28.917 22.896 28.917 22.923 C 28.935 22.887 28.935 22.87 28.944 22.852 L 28.909 22.852 Z M 28.909 22.931 L 28.909 22.923 L 28.909 22.931 Z M 27.118 26.359 L 25.591 17.886 C 25.565 17.878 25.53 17.861 25.468 17.843 C 25.485 17.878 25.495 17.904 25.503 17.931 C 25.547 17.922 25.565 17.922 25.582 17.913 C 25.582 17.905 25.582 17.896 25.591 17.887 L 27.118 26.36 L 27.118 26.359 Z M 25.538 15.979 C 25.53 16.005 25.53 16.032 25.53 16.058 C 25.53 16.032 25.53 16.005 25.539 15.979 L 25.538 15.979 Z M 25.547 16.154 C 25.538 16.154 25.538 16.154 25.53 16.146 L 25.53 16.154 C 25.539 16.163 25.539 16.163 25.548 16.154 L 25.547 16.154 Z M 25.53 16.224 L 25.53 16.163 C 25.504 16.172 25.478 16.172 25.442 16.18 C 25.486 16.198 25.53 16.206 25.53 16.224 L 25.53 16.224 Z" fill="#dd3735" stroke-width="1.642" style="stroke-width: 0.334;"></path>
  <path d="M 32.946 18.309 C 32.929 17.966 32.92 17.623 32.884 17.281 C 32.823 16.815 32.761 16.341 32.656 15.884 C 32.577 15.506 32.446 15.145 32.314 14.785 C 32.147 14.363 31.98 13.932 31.77 13.528 C 31.427 12.878 30.979 12.297 30.568 11.691 C 30.295 11.304 29.944 10.988 29.68 10.592 C 29.531 10.364 29.311 10.17 29.092 9.996 C 28.741 9.714 28.372 9.459 28.003 9.212 C 27.723 9.019 27.442 8.835 27.143 8.667 C 26.906 8.535 26.652 8.43 26.406 8.315 C 26.125 8.184 25.853 8.025 25.537 7.964 C 25.458 7.947 25.388 7.92 25.308 7.894 C 25.107 7.824 24.913 7.744 24.712 7.683 C 24.405 7.586 24.106 7.472 23.79 7.392 C 23.484 7.314 23.167 7.262 22.851 7.217 C 22.5 7.165 22.141 7.147 21.789 7.113 C 21.561 7.086 21.333 7.06 21.113 7.051 C 20.78 7.034 20.438 7.034 20.104 7.025 C 19.937 7.016 19.762 6.998 19.595 7.007 C 19.341 7.016 19.086 7.042 18.832 7.077 C 18.586 7.104 18.34 7.148 18.104 7.184 C 17.814 7.218 17.524 7.236 17.235 7.271 C 16.963 7.306 16.682 7.359 16.409 7.404 C 16.313 7.421 16.216 7.456 16.119 7.474 C 15.91 7.517 15.69 7.535 15.479 7.605 C 15.102 7.721 14.724 7.852 14.356 7.992 C 14.013 8.133 13.679 8.283 13.355 8.458 C 13.022 8.643 12.705 8.862 12.39 9.073 C 12.091 9.276 11.793 9.486 11.503 9.714 C 11.222 9.935 10.959 10.181 10.704 10.427 C 10.563 10.567 10.45 10.734 10.318 10.893 C 10.099 11.148 9.879 11.393 9.668 11.657 C 9.493 11.877 9.335 12.106 9.168 12.334 C 8.87 12.738 8.616 13.169 8.379 13.6 C 8.282 13.775 8.194 13.952 8.106 14.127 C 7.975 14.39 7.834 14.646 7.712 14.918 C 7.624 15.103 7.554 15.305 7.501 15.507 C 7.378 15.938 7.256 16.378 7.141 16.808 C 7.036 17.194 7.01 17.599 7.001 17.995 C 6.992 18.347 7.027 18.689 7.062 19.041 C 7.071 19.129 7.019 19.234 7.123 19.305 C 7.088 19.401 7.115 19.454 7.167 19.471 C 7.106 19.568 7.194 19.63 7.159 19.718 C 7.15 19.735 7.186 19.77 7.202 19.796 C 7.202 19.823 7.194 19.858 7.202 19.885 C 7.212 19.964 7.247 20.042 7.247 20.131 C 7.247 20.192 7.299 20.263 7.317 20.324 C 7.326 20.35 7.317 20.394 7.299 20.412 C 7.247 20.473 7.255 20.526 7.334 20.562 C 7.378 20.675 7.361 20.728 7.352 20.782 C 7.369 20.861 7.343 20.887 7.352 20.904 C 7.422 21.045 7.449 21.203 7.457 21.361 C 7.457 21.397 7.475 21.432 7.492 21.476 C 7.501 21.476 7.492 21.642 7.492 21.642 C 7.536 21.616 7.572 21.608 7.616 21.59 C 7.642 21.704 7.668 21.81 7.703 21.907 C 7.747 21.977 7.747 22.012 7.729 22.02 C 7.764 22.178 7.782 22.328 7.843 22.477 C 7.843 22.31 7.826 22.143 7.8 21.985 C 7.923 22.029 8.028 22.073 8.098 22.073 C 8.107 22.046 8.116 22.012 8.125 21.994 C 8.072 21.941 8.028 21.862 7.976 21.81 C 7.993 21.88 7.976 21.906 7.976 21.933 C 7.941 21.915 7.897 21.897 7.853 21.88 C 7.888 21.836 7.923 21.792 7.976 21.74 C 7.976 21.66 7.933 21.589 7.809 21.598 C 7.861 21.581 7.914 21.555 7.976 21.537 C 8.072 21.485 7.967 21.388 7.967 21.265 C 7.976 21.116 7.888 20.967 7.861 20.809 C 7.817 20.562 7.826 20.193 7.8 19.947 C 7.747 19.903 7.703 20.017 7.694 20.026 C 7.721 20.237 7.747 20.448 7.764 20.659 C 7.712 20.483 7.677 20.289 7.634 20.078 C 7.625 20.14 7.616 20.167 7.616 20.202 C 7.573 20.245 7.607 20.298 7.634 20.36 C 7.572 20.333 7.502 20.342 7.502 20.342 L 7.502 20.588 C 7.414 20.501 7.388 20.431 7.343 20.368 C 7.326 20.298 7.317 20.228 7.3 20.159 C 7.317 20.114 7.3 20.088 7.3 20.062 C 7.291 19.999 7.283 19.929 7.274 19.851 C 7.283 19.842 7.265 19.71 7.265 19.71 C 7.335 19.718 7.379 19.727 7.423 19.727 C 7.335 19.613 7.396 19.543 7.432 19.472 C 7.45 19.437 7.511 19.429 7.529 19.393 C 7.599 19.262 7.713 19.156 7.713 18.989 C 7.713 18.91 7.74 18.822 7.748 18.742 C 7.766 18.593 7.783 18.443 7.792 18.295 C 7.81 18.1 7.792 17.907 7.836 17.723 C 7.907 17.416 7.994 17.108 8.091 16.8 C 8.161 16.58 8.24 16.37 8.327 16.15 C 8.46 15.807 8.583 15.464 8.749 15.14 C 8.986 14.664 9.259 14.208 9.522 13.741 C 9.688 13.451 9.864 13.179 10.049 12.898 C 10.224 12.625 10.399 12.344 10.602 12.089 C 10.883 11.729 11.19 11.395 11.532 11.096 C 11.883 10.78 12.217 10.454 12.594 10.164 C 13.086 9.785 13.603 9.451 14.156 9.161 C 14.604 8.925 15.069 8.739 15.534 8.563 C 15.833 8.449 16.157 8.397 16.465 8.3 C 16.816 8.185 17.167 8.133 17.536 8.124 C 17.772 8.115 18 8.089 18.238 8.063 C 18.448 8.046 18.659 8.028 18.887 8.002 C 18.861 8.037 18.852 8.054 18.843 8.072 C 18.747 8.212 18.641 8.353 18.545 8.493 C 18.466 8.608 18.378 8.731 18.299 8.845 C 18.158 9.03 18.009 9.215 17.878 9.408 C 17.675 9.698 17.491 9.997 17.281 10.286 C 17.07 10.568 16.842 10.832 16.622 11.104 C 16.333 11.483 16.061 11.868 15.771 12.247 C 15.508 12.607 15.227 12.951 14.973 13.311 C 14.745 13.627 14.542 13.961 14.323 14.286 C 13.999 14.769 13.674 15.244 13.349 15.727 C 13.094 16.096 12.839 16.457 12.577 16.826 C 12.559 16.852 12.532 16.861 12.506 16.878 C 12.436 16.992 12.436 17.054 12.409 17.107 C 12.34 17.238 12.27 17.37 12.19 17.493 C 12.146 17.563 12.084 17.625 12.032 17.696 C 12.024 17.59 12.172 17.537 12.102 17.406 C 12.058 17.476 12.015 17.537 11.971 17.608 L 11.865 17.818 C 11.9 17.844 11.962 17.862 11.9 17.914 C 11.874 17.959 11.848 18.011 11.821 18.056 C 11.865 18.029 11.891 18.003 11.918 17.968 C 11.918 18.065 11.865 18.143 11.821 18.222 C 11.786 18.292 11.699 18.346 11.638 18.398 C 11.646 18.407 11.707 18.434 11.716 18.442 C 11.795 18.416 11.822 18.372 11.831 18.398 C 11.857 18.363 11.884 18.337 11.892 18.31 C 11.927 18.222 11.98 18.152 12.067 18.117 C 12.102 18.099 12.128 18.073 12.155 18.047 C 12.418 17.774 12.691 17.511 12.927 17.22 C 13.296 16.772 13.63 16.306 13.982 15.849 C 14.13 15.656 14.306 15.462 14.464 15.278 C 14.49 15.48 14.472 15.673 14.464 15.858 C 14.437 16.183 14.42 16.509 14.394 16.842 C 14.385 16.973 14.394 17.105 14.385 17.238 C 14.385 17.272 14.358 17.299 14.358 17.334 C 14.358 17.422 14.385 17.519 14.385 17.606 C 14.358 17.932 14.323 18.248 14.296 18.573 C 14.287 18.643 14.322 18.714 14.34 18.776 C 14.296 19.25 14.393 19.751 14.314 20.253 C 14.375 20.156 14.393 20.094 14.393 20.033 C 14.401 19.981 14.393 19.928 14.393 19.866 L 14.393 19.778 C 14.401 19.62 14.436 19.453 14.419 19.295 C 14.401 19.119 14.401 18.952 14.437 18.785 C 14.454 18.715 14.428 18.627 14.472 18.538 L 14.472 18.671 C 14.463 19.171 14.481 19.672 14.411 20.173 C 14.402 20.217 14.438 20.297 14.341 20.288 C 14.261 20.445 14.358 20.56 14.271 20.648 C 14.252 20.666 14.287 20.744 14.296 20.797 C 14.261 20.903 14.261 20.903 14.314 20.912 C 14.322 21.105 14.34 21.281 14.349 21.465 C 14.489 21.132 14.419 20.788 14.481 20.445 C 14.49 20.586 14.498 20.726 14.49 20.875 C 14.49 21.104 14.481 21.324 14.472 21.553 C 14.472 21.597 14.463 21.641 14.455 21.684 C 14.428 21.808 14.42 21.931 14.375 22.045 C 14.34 22.133 14.358 22.265 14.358 22.37 L 14.358 22.705 C 14.393 22.854 14.349 22.933 14.375 23.021 C 14.349 23.11 14.34 23.136 14.349 23.162 L 14.375 23.294 C 14.551 23.276 14.472 23.408 14.542 23.478 C 14.49 23.549 14.507 23.575 14.507 23.611 C 14.507 23.69 14.498 23.76 14.49 23.839 C 14.49 24.042 14.481 24.243 14.481 24.436 C 14.481 24.463 14.49 24.489 14.49 24.515 C 14.49 24.533 14.481 24.762 14.481 24.762 C 14.498 24.788 14.481 24.815 14.455 24.841 C 14.446 24.841 14.42 23.725 14.42 23.725 L 14.288 23.725 C 14.271 24.252 14.315 24.726 14.218 25.219 C 14.113 25.227 14.078 25.245 13.963 25.245 C 13.691 25.245 13.419 25.245 13.146 25.254 C 12.821 25.254 12.506 25.262 12.181 25.262 C 12.024 25.262 11.857 25.281 11.699 25.281 C 11.488 25.281 11.269 25.254 11.058 25.254 C 10.733 25.254 10.417 25.281 10.092 25.289 C 9.856 25.298 9.619 25.298 9.382 25.307 C 9.224 25.315 9.065 25.324 8.908 25.342 C 8.838 25.35 8.776 25.376 8.688 25.402 C 8.661 25.402 8.6 25.394 8.548 25.402 C 8.46 25.42 8.381 25.473 8.292 25.491 C 8.161 25.518 8.126 25.552 8.143 25.684 L 8.143 25.772 C 8.135 25.789 8.337 25.745 8.337 25.745 C 8.318 25.745 8.31 25.798 8.284 25.842 C 8.354 25.815 8.398 25.798 8.442 25.78 C 8.574 25.842 8.687 25.807 8.793 25.834 C 9.135 25.922 9.486 25.957 9.837 25.992 C 10.065 26.009 10.285 26.018 10.513 26.026 C 10.837 26.044 11.162 26.062 11.486 26.062 C 11.759 26.062 12.023 26.035 12.294 26.035 C 12.671 26.035 13.049 26.052 13.427 26.062 C 13.506 26.062 13.593 26.052 13.681 26.052 L 14.321 26.052 C 14.893 26.035 15.463 26.026 16.033 26.009 C 16.358 26 16.692 25.983 17.016 25.974 L 18.017 25.947 C 18.403 25.939 18.79 25.939 19.167 25.931 C 19.457 25.931 19.738 25.92 20.028 25.912 C 20.352 25.903 20.686 25.877 21.011 25.86 C 21.186 25.851 21.362 25.833 21.537 25.816 C 21.749 25.798 21.968 25.772 22.178 25.763 C 22.494 25.745 22.819 25.736 23.135 25.719 C 23.53 25.693 23.925 25.658 24.329 25.649 C 24.698 25.632 25.075 25.641 25.444 25.632 C 25.769 25.623 26.094 25.605 26.427 25.596 L 26.98 25.57 C 26.98 25.57 27.349 25.561 27.534 25.543 C 27.849 25.525 28.165 25.49 28.481 25.482 C 28.682 25.473 28.885 25.482 29.086 25.473 C 29.411 25.464 29.744 25.446 30.069 25.446 C 30.192 25.446 30.324 25.464 30.482 25.473 C 30.412 25.534 30.368 25.57 30.315 25.614 C 30.35 25.622 30.386 25.641 30.42 25.658 C 30.368 25.693 30.324 25.701 30.281 25.701 C 30.263 25.745 30.245 25.763 30.227 25.851 L 30.386 25.851 C 30.324 25.851 30.271 25.93 30.21 25.983 C 30.139 25.965 30.078 25.983 30.043 26.079 C 30.104 26.114 30.095 26.14 30.087 26.176 C 29.982 26.211 29.903 26.246 29.947 26.36 C 29.911 26.377 29.867 26.395 29.823 26.421 C 29.78 26.492 29.701 26.509 29.718 26.606 C 29.753 26.615 29.788 26.633 29.815 26.641 C 29.77 26.659 29.727 26.685 29.683 26.702 C 29.525 26.799 29.596 26.843 29.631 26.887 C 29.604 26.905 29.578 26.922 29.552 26.931 C 29.569 27.01 29.595 27.027 29.604 27.027 C 29.569 27.053 29.525 27.089 29.472 27.133 C 29.445 27.212 29.411 27.247 29.376 27.3 C 29.341 27.353 29.323 27.423 29.279 27.476 C 29.094 27.678 28.963 27.916 28.726 28.074 C 28.638 28.136 28.559 28.215 28.48 28.294 C 28.323 28.443 28.182 28.61 28.015 28.751 C 27.796 28.935 27.568 29.102 27.33 29.269 C 27.041 29.472 26.752 29.673 26.462 29.867 C 26.304 29.972 26.129 30.051 25.961 30.148 C 25.795 30.244 25.637 30.333 25.47 30.429 C 25.365 30.499 25.268 30.596 25.154 30.649 C 24.864 30.772 24.557 30.877 24.258 30.992 C 23.968 31.115 23.759 31.22 23.538 31.3 C 23.337 31.37 23.127 31.423 22.916 31.466 C 22.845 31.484 22.767 31.466 22.687 31.475 C 22.537 31.502 22.389 31.537 22.239 31.555 C 21.853 31.608 21.467 31.643 21.081 31.695 C 20.852 31.722 20.633 31.765 20.405 31.792 C 20.247 31.801 20.08 31.783 19.922 31.783 C 19.808 31.783 19.686 31.81 19.571 31.792 C 19.387 31.766 19.202 31.722 19.018 31.687 C 18.975 31.678 18.913 31.66 18.878 31.678 C 18.808 31.714 18.745 31.661 18.676 31.678 C 18.632 31.687 18.588 31.652 18.544 31.652 C 18.509 31.643 18.464 31.661 18.42 31.652 C 18.324 31.626 18.237 31.591 18.13 31.6 C 18.026 31.608 17.92 31.556 17.807 31.53 C 17.649 31.494 17.5 31.459 17.341 31.423 C 17.281 31.406 17.228 31.379 17.166 31.344 C 16.938 31.344 16.788 31.335 16.648 31.283 C 16.525 31.24 16.411 31.178 16.279 31.196 C 16.245 31.204 16.219 31.187 16.183 31.187 C 16.156 31.151 16.13 31.081 16.104 31.081 C 15.928 31.09 15.824 30.941 15.674 30.897 C 15.595 30.87 15.534 30.782 15.455 30.756 C 15.261 30.676 15.104 30.51 14.884 30.484 C 14.815 30.475 14.744 30.439 14.665 30.413 C 14.692 30.448 14.708 30.475 14.735 30.501 C 14.481 30.377 14.243 30.238 14.006 30.105 C 13.972 30.096 13.945 30.062 13.919 30.044 L 13.682 29.886 C 13.55 29.913 13.497 29.859 13.462 29.842 C 13.225 29.675 12.953 29.569 12.725 29.385 C 12.628 29.306 12.515 29.253 12.444 29.156 C 12.322 29.007 12.172 28.901 12.006 28.813 C 11.874 28.744 11.751 28.664 11.629 28.585 C 11.567 28.541 11.505 28.488 11.505 28.392 C 11.505 28.33 11.479 28.268 11.4 28.304 C 11.365 28.251 11.33 28.189 11.286 28.172 C 11.181 28.128 11.11 28.048 11.031 27.978 C 10.953 27.908 10.892 27.812 10.795 27.777 C 10.619 27.707 10.514 27.557 10.408 27.434 C 10.162 27.144 9.943 26.827 9.714 26.52 C 9.697 26.494 9.662 26.476 9.636 26.45 C 9.671 26.546 9.714 26.625 9.758 26.713 C 9.671 26.678 9.61 26.616 9.557 26.555 C 9.548 26.564 10.162 27.574 10.162 27.574 C 10.216 27.653 10.259 27.733 10.312 27.812 C 10.18 27.821 10.092 27.751 10.048 27.671 C 9.97 27.531 9.882 27.443 9.706 27.461 C 9.688 27.399 9.671 27.329 9.662 27.268 C 9.627 27.268 9.601 27.268 9.539 27.258 C 9.662 27.452 9.768 27.619 9.882 27.812 C 9.837 27.786 9.812 27.769 9.793 27.76 C 9.951 27.926 10.065 28.137 10.267 28.243 C 10.311 28.445 10.539 28.542 10.592 28.735 C 10.549 28.726 10.512 28.718 10.468 28.709 C 10.399 28.621 10.32 28.533 10.241 28.436 C 10.258 28.497 10.284 28.55 10.32 28.595 C 10.425 28.726 10.521 28.858 10.644 28.973 C 10.689 29.017 10.75 29.034 10.75 29.114 C 10.819 29.149 10.846 29.157 10.872 29.157 C 10.89 29.211 10.864 29.29 10.969 29.272 C 11.04 29.403 11.109 29.403 11.206 29.36 C 11.321 29.474 11.382 29.484 11.46 29.413 C 11.46 29.457 11.469 29.501 11.469 29.536 C 11.504 29.519 11.496 29.492 11.496 29.448 C 11.539 29.483 11.566 29.501 11.583 29.518 C 11.671 29.641 11.751 29.756 11.873 29.853 C 12.04 29.993 12.189 30.143 12.347 30.274 C 12.654 30.529 12.997 30.741 13.339 30.933 C 13.761 31.171 14.165 31.426 14.594 31.654 C 15.112 31.927 15.665 32.111 16.236 32.244 C 16.446 32.288 16.648 32.332 16.859 32.384 C 17.042 32.437 17.228 32.516 17.412 32.56 C 17.692 32.622 17.983 32.674 18.263 32.726 C 18.324 32.735 18.386 32.744 18.456 32.753 C 18.535 32.771 18.632 32.735 18.649 32.762 C 18.693 32.832 18.728 32.797 18.78 32.788 C 18.842 32.77 18.913 32.77 18.983 32.77 C 19.228 32.779 19.465 32.832 19.711 32.814 C 19.764 32.814 19.843 32.77 19.887 32.858 C 19.966 32.823 20.01 32.823 20.045 32.814 C 20.054 32.893 20.045 32.893 20.028 32.902 C 20.011 32.911 19.984 32.92 19.949 32.946 C 20.265 33.008 20.563 33.016 20.826 32.946 C 21.283 32.981 21.678 32.928 22.056 32.796 C 22.091 32.84 22.117 32.902 22.169 32.814 C 22.187 32.787 22.231 32.778 22.266 32.77 C 22.345 32.752 22.442 32.717 22.511 32.744 C 22.591 32.77 22.618 32.7 22.679 32.7 C 22.784 32.7 22.88 32.691 22.978 32.673 C 23.03 32.665 23.083 32.638 23.144 32.62 C 23.075 32.585 23.004 32.576 22.951 32.576 C 23.057 32.523 23.153 32.479 23.249 32.436 C 23.232 32.462 23.214 32.497 23.179 32.497 L 23.302 32.497 C 23.275 32.497 23.24 32.576 23.196 32.629 C 23.512 32.549 23.802 32.479 24.083 32.409 C 23.986 32.224 24.188 32.286 24.258 32.18 C 24.171 32.207 24.083 32.233 23.995 32.25 C 24.293 32.102 24.6 31.97 24.899 31.838 C 24.856 31.89 24.802 31.917 24.724 31.961 C 24.776 31.97 24.811 31.97 24.838 31.978 C 24.977 32.022 24.943 31.89 24.986 31.812 C 25.154 31.812 25.224 31.786 25.302 31.759 C 25.39 31.732 25.478 31.706 25.566 31.671 C 25.706 31.609 25.838 31.53 25.978 31.461 C 26.005 31.452 26.048 31.461 26.084 31.461 C 26.181 31.399 26.215 31.346 26.242 31.355 C 26.365 31.372 26.451 31.328 26.487 31.214 C 26.548 31.17 26.593 31.135 26.636 31.109 C 26.829 31.003 27.013 30.897 27.206 30.792 C 27.277 30.792 27.312 30.792 27.329 30.783 C 27.444 30.73 27.549 30.669 27.655 30.607 C 27.628 30.598 27.567 30.564 27.567 30.564 C 27.654 30.546 27.68 30.538 27.733 30.52 C 27.944 30.273 28.234 30.106 28.453 29.913 C 28.55 29.904 28.55 29.878 28.55 29.86 C 28.584 29.816 28.62 29.763 28.663 29.728 C 28.856 29.553 29.067 29.403 29.242 29.219 C 29.497 28.963 29.743 28.699 29.971 28.427 C 30.181 28.18 30.393 27.935 30.568 27.662 C 30.814 27.284 31.024 26.897 31.244 26.502 C 31.402 26.221 31.543 25.94 31.701 25.658 C 31.717 25.632 31.753 25.597 31.779 25.597 C 32.016 25.57 32.253 25.554 32.482 25.527 C 32.535 25.518 32.596 25.483 32.648 25.457 C 32.622 25.412 32.604 25.359 32.578 25.316 C 32.544 25.263 32.491 25.219 32.455 25.166 C 32.42 25.122 32.394 25.069 32.368 25.017 C 32.341 24.973 32.315 24.938 32.288 24.893 C 32.236 24.796 32.183 24.7 32.139 24.595 C 32.13 24.568 32.112 24.525 32.121 24.498 C 32.279 24.156 32.34 23.786 32.49 23.444 C 32.639 23.092 32.683 22.697 32.753 22.318 C 32.815 21.958 32.85 21.598 32.894 21.238 C 32.92 20.983 32.955 20.737 32.964 20.482 C 33.016 20.078 32.999 19.699 32.99 19.322 C 32.981 18.988 32.964 18.645 32.947 18.311 L 32.946 18.309 Z M 10.923 29.129 C 10.862 29.059 10.81 28.979 10.748 28.909 L 10.775 28.882 C 10.871 28.989 10.967 29.094 11.064 29.208 C 11.011 29.181 10.949 29.164 10.923 29.129 Z M 11.064 29.208 C 11.091 29.199 11.117 29.199 11.144 29.19 C 11.17 29.235 11.187 29.287 11.213 29.34 C 11.091 29.331 11.029 29.278 11.064 29.208 Z M 20.193 32.839 L 20.193 32.812 C 20.36 32.795 20.518 32.777 20.684 32.759 L 20.684 32.785 C 20.518 32.812 20.36 32.828 20.193 32.838 L 20.193 32.839 Z M 22.404 32.61 C 22.282 32.636 22.15 32.654 22.027 32.672 C 21.983 32.681 21.931 32.725 21.913 32.645 C 21.896 32.654 21.878 32.654 21.861 32.663 C 21.904 32.795 22.009 32.689 22.097 32.742 C 21.904 32.769 21.721 32.786 21.536 32.812 L 21.536 32.795 C 21.589 32.786 21.65 32.777 21.702 32.768 L 21.702 32.742 C 21.615 32.733 21.528 32.724 21.439 32.724 C 21.413 32.724 21.378 32.76 21.352 32.769 C 21.316 32.777 21.281 32.786 21.237 32.786 C 21.089 32.795 20.939 32.795 20.799 32.804 C 20.79 32.804 20.772 32.795 20.763 32.795 L 20.763 32.768 C 21.351 32.689 21.931 32.61 22.519 32.531 C 22.528 32.549 22.528 32.566 22.537 32.583 C 22.484 32.583 22.449 32.602 22.405 32.61 L 22.404 32.61 Z M 22.537 32.523 C 22.738 32.496 22.923 32.479 23.116 32.453 C 22.712 32.566 22.581 32.584 22.537 32.523 Z M 14.891 14.776 C 15.171 14.39 15.461 14.003 15.742 13.607 C 15.83 13.492 15.9 13.369 15.988 13.255 C 16.015 13.22 16.05 13.203 16.093 13.167 L 16.084 13.151 C 16.119 13.106 16.154 13.07 16.172 13.035 C 16.217 12.965 16.243 12.887 16.279 12.807 C 16.287 12.791 16.314 12.773 16.314 12.773 C 16.437 12.834 16.437 12.703 16.48 12.658 C 16.559 12.57 16.639 12.474 16.709 12.386 C 16.761 12.316 16.813 12.254 16.858 12.175 C 16.866 12.148 16.84 12.105 16.831 12.069 L 16.805 12.069 C 16.832 12.052 16.858 12.026 16.884 12.008 C 16.893 12.008 16.893 12.008 16.901 11.999 C 16.954 11.92 17.007 11.841 17.06 11.77 C 17.164 11.63 17.279 11.49 17.402 11.367 C 17.384 11.41 17.367 11.455 17.349 11.49 C 17.358 11.49 17.358 11.499 17.367 11.499 C 17.471 11.358 17.586 11.226 17.692 11.085 C 17.682 11.077 17.674 11.067 17.665 11.067 C 17.621 11.112 17.586 11.156 17.542 11.2 C 17.533 11.191 17.524 11.182 17.515 11.182 C 17.604 11.067 17.692 10.954 17.779 10.822 C 17.796 10.849 17.814 10.883 17.848 10.954 C 17.884 10.866 17.919 10.805 17.945 10.743 C 17.919 10.769 17.884 10.795 17.858 10.822 L 17.831 10.795 L 17.99 10.559 C 18.156 10.321 18.323 10.075 18.49 9.837 C 18.551 9.75 18.63 9.68 18.683 9.592 C 18.85 9.258 19.114 8.994 19.315 8.686 C 19.359 8.625 19.421 8.572 19.473 8.519 C 19.517 8.466 19.552 8.484 19.587 8.528 C 19.824 8.827 20.061 9.134 20.297 9.433 C 20.474 9.654 20.649 9.863 20.816 10.092 C 21.018 10.374 21.211 10.655 21.413 10.937 C 21.641 11.262 21.87 11.587 22.089 11.92 C 22.422 12.413 22.738 12.905 23.071 13.397 C 23.317 13.758 23.564 14.109 23.8 14.469 L 23.352 14.469 C 22.94 14.461 22.518 14.426 22.106 14.443 C 21.544 14.47 20.973 14.532 20.412 14.576 C 19.701 14.637 18.981 14.646 18.27 14.646 C 18.015 14.646 17.761 14.681 17.506 14.699 C 17.199 14.716 16.9 14.734 16.593 14.742 C 16.233 14.76 15.883 14.769 15.523 14.778 C 15.321 14.787 15.11 14.778 14.891 14.778 L 14.891 14.776 Z M 24.959 18.819 L 24.959 18.898 C 24.95 18.898 24.941 18.907 24.924 18.907 C 24.889 18.784 24.853 18.652 24.809 18.529 C 24.721 18.273 24.625 18.018 24.467 17.79 C 24.291 17.545 24.133 17.29 23.957 17.035 C 23.914 16.973 23.852 16.921 23.799 16.868 C 23.615 16.666 23.43 16.454 23.193 16.306 C 22.842 16.085 22.482 15.901 22.096 15.743 C 21.991 15.699 21.894 15.646 21.789 15.584 L 22 15.584 L 23.5 15.557 C 23.825 15.549 24.141 15.549 24.466 15.531 C 24.544 15.531 24.589 15.558 24.633 15.628 C 24.712 15.76 24.791 15.892 24.878 16.024 C 24.887 16.042 24.905 16.068 24.905 16.094 C 24.905 16.288 24.905 16.489 24.913 16.683 C 24.922 16.885 24.94 17.078 24.948 17.281 C 24.948 17.483 24.93 17.693 24.939 17.905 C 24.948 18.204 24.957 18.512 24.957 18.819 L 24.959 18.819 Z M 15.514 15.876 C 15.927 15.858 16.321 15.832 16.726 15.814 C 17.041 15.796 17.366 15.787 17.681 15.77 C 17.813 15.762 17.936 15.753 18.068 15.77 C 17.927 15.841 17.787 15.911 17.664 15.998 C 17.506 16.104 17.357 16.245 17.198 16.359 C 17.04 16.473 16.899 16.614 16.769 16.763 C 16.601 16.965 16.417 17.141 16.241 17.334 C 16.118 17.475 15.978 17.607 15.873 17.756 C 15.724 17.95 15.592 18.16 15.452 18.38 C 15.495 17.545 15.548 16.719 15.513 15.875 L 15.514 15.876 Z M 21.246 24.331 C 20.964 24.401 20.675 24.48 20.385 24.515 C 20.14 24.551 19.885 24.542 19.63 24.542 C 19.402 24.542 19.183 24.534 18.954 24.515 C 18.7 24.489 18.445 24.463 18.199 24.349 C 17.988 24.252 17.769 24.164 17.559 24.059 C 17.347 23.953 17.137 23.83 16.978 23.637 C 16.865 23.496 16.707 23.382 16.566 23.259 C 16.593 23.364 16.654 23.452 16.751 23.513 C 16.707 23.566 16.645 23.54 16.557 23.399 C 16.531 23.417 16.505 23.426 16.487 23.435 C 16.513 23.373 16.539 23.311 16.566 23.259 C 16.531 23.188 16.487 23.11 16.453 23.039 C 16.382 22.924 16.312 22.802 16.25 22.687 C 16.232 22.661 16.232 22.635 16.215 22.608 C 16.171 22.555 16.128 22.503 16.092 22.45 C 16.022 22.345 15.96 22.23 15.872 22.125 C 15.872 22.152 15.882 22.178 15.882 22.213 C 15.872 22.213 15.864 22.221 15.864 22.221 L 15.679 21.774 C 15.671 21.774 15.671 21.774 15.662 21.782 L 15.82 22.363 C 15.811 22.363 15.803 22.371 15.793 22.371 C 15.768 22.336 15.741 22.301 15.723 22.257 C 15.706 22.187 15.653 22.187 15.61 22.213 C 15.583 22.23 15.565 22.292 15.574 22.318 C 15.636 22.468 15.706 22.617 15.777 22.767 C 15.794 22.819 15.811 22.863 15.837 22.916 C 15.846 22.934 15.873 22.951 15.873 22.978 C 15.908 23.048 15.935 23.118 15.979 23.179 C 16.058 23.285 16.145 23.391 16.224 23.496 C 16.303 23.601 16.373 23.716 16.443 23.821 C 16.452 23.838 16.478 23.838 16.487 23.848 C 16.531 23.98 16.68 24.076 16.786 24.023 C 16.812 24.225 17.031 24.296 17.119 24.489 C 17.013 24.445 16.934 24.41 16.865 24.375 C 16.856 24.384 16.856 24.392 16.847 24.41 C 16.951 24.462 17.057 24.515 17.153 24.576 C 17.242 24.63 17.329 24.683 17.408 24.744 C 17.514 24.84 17.637 24.893 17.785 24.928 C 17.777 24.901 17.769 24.892 17.769 24.892 C 18.014 25.007 18.269 25.13 18.462 25.226 C 17.549 25.244 16.574 25.262 15.564 25.279 C 15.564 25.112 15.556 24.954 15.556 24.787 C 15.556 24.717 15.573 24.655 15.564 24.585 C 15.538 24.181 15.538 23.777 15.486 23.381 C 15.433 22.959 15.433 22.546 15.442 22.123 C 15.451 21.896 15.433 21.658 15.424 21.429 C 15.424 21.122 15.424 20.822 15.434 20.516 C 15.434 20.471 15.451 20.436 15.469 20.393 L 15.495 20.393 C 15.504 20.41 15.495 20.436 15.512 20.445 C 15.538 20.472 15.583 20.516 15.6 20.507 C 15.653 20.471 15.732 20.437 15.75 20.384 C 15.793 20.279 15.811 20.164 15.811 20.059 C 15.811 19.98 15.846 19.927 15.881 19.874 C 15.899 19.847 15.907 19.821 15.925 19.786 C 15.89 19.76 15.855 19.743 15.811 19.708 C 15.846 19.611 15.838 19.496 15.97 19.444 C 15.987 19.435 15.987 19.391 15.997 19.365 C 16.005 19.293 16.013 19.214 16.023 19.145 C 16.04 19.171 16.049 19.179 16.066 19.197 C 16.075 19.179 16.084 19.171 16.084 19.171 C 16.084 19.136 16.075 19.065 16.084 19.065 C 16.189 19.047 16.145 18.933 16.198 18.88 C 16.206 18.872 16.188 18.845 16.188 18.827 C 16.188 18.81 16.188 18.784 16.197 18.784 C 16.32 18.757 16.302 18.625 16.382 18.564 C 16.409 18.546 16.417 18.52 16.452 18.476 C 16.522 18.598 16.399 18.66 16.39 18.748 C 16.539 18.66 16.583 18.45 16.496 18.388 C 16.531 18.361 16.565 18.326 16.592 18.291 C 16.689 18.186 16.794 18.089 16.882 17.983 C 16.943 17.905 16.978 17.808 17.04 17.729 C 17.075 17.685 17.145 17.65 17.198 17.623 C 17.356 17.536 17.505 17.439 17.601 17.29 C 17.619 17.272 17.645 17.255 17.671 17.238 C 17.698 17.22 17.751 17.22 17.76 17.193 C 17.769 17.176 17.742 17.132 17.724 17.105 C 17.759 17.088 17.795 17.053 17.865 17.017 C 17.838 17.07 17.83 17.105 17.812 17.141 L 17.855 17.184 C 17.935 17.123 18.057 17.053 18.136 17 C 18.136 16.991 18.092 16.956 18.092 16.956 C 18.04 16.983 17.961 17.027 17.883 17.062 C 17.899 17.035 17.899 17.018 17.909 17.009 C 18.031 16.93 18.154 16.852 18.286 16.789 C 18.593 16.649 18.9 16.509 19.208 16.377 C 19.26 16.35 19.33 16.368 19.392 16.368 C 19.418 16.368 19.435 16.368 19.462 16.359 C 19.602 16.315 19.742 16.271 19.883 16.236 C 19.944 16.219 20.015 16.21 20.076 16.21 C 20.339 16.219 20.603 16.219 20.866 16.236 C 20.98 16.245 21.086 16.271 21.19 16.306 C 21.322 16.35 21.463 16.412 21.586 16.473 C 21.735 16.553 21.875 16.64 22.016 16.737 C 22.27 16.904 22.507 17.089 22.762 17.238 C 23.008 17.387 23.2 17.589 23.359 17.818 C 23.552 18.091 23.772 18.337 23.859 18.671 L 23.99 19.251 C 24.017 19.357 24.079 19.461 24.052 19.584 C 24.008 19.804 23.973 20.033 23.937 20.253 C 23.92 20.341 23.902 20.43 23.911 20.516 C 23.928 20.79 23.824 21.026 23.718 21.272 C 23.683 21.352 23.63 21.431 23.586 21.519 C 23.595 21.528 23.648 21.554 23.656 21.554 L 23.736 21.396 C 23.745 21.396 23.745 21.396 23.753 21.405 C 23.709 21.528 23.674 21.66 23.63 21.783 C 23.525 22.056 23.42 22.337 23.288 22.6 C 23.218 22.75 23.095 22.873 23.007 23.014 C 22.92 23.136 22.849 23.268 22.762 23.383 C 22.683 23.479 22.604 23.576 22.498 23.647 C 22.261 23.822 22.016 23.998 21.761 24.139 C 21.603 24.236 21.419 24.288 21.243 24.332 L 21.246 24.331 Z M 16.567 23.864 L 16.558 23.873 C 16.54 23.864 16.513 23.855 16.496 23.838 L 16.286 23.522 C 16.268 23.496 16.259 23.469 16.268 23.434 C 16.365 23.583 16.461 23.724 16.567 23.864 Z M 22.027 25.069 C 22.422 24.901 22.747 24.665 23.044 24.392 C 23.089 24.348 23.133 24.304 23.185 24.268 C 23.554 24.04 23.826 23.724 24.072 23.372 C 24.353 22.968 24.537 22.511 24.765 22.08 C 24.783 22.045 24.8 22.01 24.818 21.983 C 24.8 22.985 24.915 23.97 25.047 24.963 C 24.054 24.998 23.045 25.034 22.027 25.069 Z M 30.927 24.804 C 30.919 24.822 30.901 24.84 30.893 24.858 C 30.884 24.84 30.884 24.813 30.875 24.778 C 30.822 24.919 30.708 24.848 30.628 24.848 C 30.156 24.858 29.672 24.858 29.198 24.858 C 28.742 24.858 28.277 24.858 27.82 24.865 C 27.671 24.865 27.512 24.9 27.364 24.91 C 27.004 24.927 26.644 24.936 26.284 24.945 C 26.257 24.945 26.231 24.901 26.187 24.866 C 26.178 24.884 26.16 24.91 26.134 24.945 C 26.126 24.928 26.108 24.91 26.091 24.884 C 26.082 24.911 26.073 24.937 26.064 24.954 L 26.039 24.954 C 26.021 24.831 25.986 24.718 25.986 24.594 C 25.986 24.331 26.013 24.067 26.021 23.803 C 26.03 23.68 26.021 23.566 26.021 23.451 C 26.056 23.478 26.082 23.496 26.117 23.522 C 26.134 23.487 26.152 23.461 26.17 23.435 C 26.17 23.435 26.152 23.425 26.134 23.408 C 26.152 23.399 26.169 23.381 26.169 23.373 C 26.178 23.346 26.196 23.32 26.196 23.302 C 26.196 23.24 26.178 23.188 26.169 23.136 C 26.178 23.136 26.186 23.136 26.196 23.127 L 26.248 23.39 L 26.275 23.39 C 26.24 23.329 26.354 23.276 26.257 23.205 C 26.249 23.197 26.266 23.144 26.266 23.118 C 26.239 23.065 26.223 23.013 26.196 22.942 C 26.204 22.933 26.231 22.924 26.257 22.915 C 26.222 22.898 26.196 22.88 26.169 22.872 C 26.257 22.793 26.257 22.749 26.178 22.661 C 26.196 22.653 26.214 22.653 26.214 22.644 C 26.214 22.565 26.214 22.486 26.196 22.408 C 26.178 22.319 26.223 22.214 26.091 22.161 C 26.1 22.187 26.108 22.204 26.126 22.23 C 26.126 22.23 26.1 22.239 26.074 22.257 C 25.959 22.152 26.03 22.01 26.003 21.853 C 26.065 21.87 26.108 21.888 26.152 21.906 C 26.134 21.844 26.091 21.774 26.065 21.695 L 26.029 21.695 L 26.029 21.114 C 26.029 21.123 26.091 21.123 26.126 21.133 C 26.126 21.123 26.134 21.115 26.134 21.106 C 26.108 21.071 26.072 21.036 26.037 20.991 L 26.055 20.974 C 25.985 20.887 26.02 20.764 26.02 20.737 L 26.02 20.122 C 26.108 20.21 25.977 20.323 26.108 20.376 L 26.108 20.289 L 26.099 20.289 C 26.091 20.157 26.091 20.025 26.082 19.894 L 26.065 19.894 C 26.056 19.912 26.056 19.92 26.046 19.938 L 26.029 19.938 L 26.082 17.837 C 26.169 17.951 26.266 18.057 26.327 18.17 C 26.529 18.54 26.793 18.857 27.038 19.191 C 27.249 19.481 27.442 19.797 27.635 20.096 C 27.872 20.456 28.1 20.816 28.337 21.177 C 28.513 21.45 28.698 21.722 28.881 21.986 C 29.048 22.222 29.224 22.451 29.399 22.68 C 29.548 22.882 29.706 23.084 29.855 23.287 C 30.031 23.533 30.207 23.778 30.382 24.016 C 30.47 24.139 30.567 24.262 30.663 24.384 C 30.716 24.455 30.794 24.508 30.847 24.552 C 30.839 24.552 30.83 24.552 30.813 24.543 C 30.839 24.578 30.856 24.605 30.874 24.622 C 30.971 24.674 30.979 24.727 30.927 24.807 L 30.927 24.804 Z M 31.375 22.608 L 31.375 22.546 C 31.375 22.564 31.383 22.59 31.375 22.607 L 31.375 22.608 Z M 31.673 18.732 C 31.664 18.732 31.612 18.679 31.603 18.67 C 31.595 18.697 31.603 18.723 31.586 18.758 C 31.577 18.732 31.516 18.741 31.516 18.715 C 31.507 18.837 31.568 18.961 31.559 19.084 C 31.586 19.066 31.691 19.057 31.717 19.031 C 31.726 19.04 31.744 19.049 31.752 19.049 C 31.577 19.18 31.621 19.312 31.7 19.462 C 31.717 19.496 31.77 19.567 31.717 19.638 C 31.7 19.655 31.726 19.708 31.735 19.751 L 31.76 19.751 L 31.76 19.769 L 31.681 19.795 C 31.664 19.769 31.559 19.717 31.559 19.672 L 31.559 20.12 C 31.647 20.147 31.647 20.27 31.681 20.332 C 31.7 20.305 31.708 20.288 31.717 20.262 L 31.726 20.27 C 31.717 20.323 31.709 20.375 31.691 20.428 C 31.674 20.507 31.656 20.577 31.648 20.657 C 31.648 20.665 31.664 20.683 31.664 20.692 C 31.569 20.912 31.621 21.157 31.586 21.385 C 31.56 21.552 31.586 21.728 31.569 21.904 C 31.551 22.053 31.515 22.212 31.48 22.361 C 31.471 22.388 31.454 22.396 31.41 22.414 C 31.428 22.308 31.419 22.238 31.401 22.141 C 31.392 22.141 31.278 22.08 31.269 22.08 C 31.269 22.204 31.339 22.37 31.365 22.51 C 31.339 22.502 31.234 22.44 31.226 22.44 C 31.208 22.546 31.208 22.686 31.199 22.8 C 31.19 22.889 31.111 22.967 31.102 23.064 C 31.102 23.117 31.163 23.152 31.155 23.24 L 31.225 23.24 C 31.225 23.065 31.304 22.906 31.304 22.722 L 31.33 22.722 C 31.339 22.739 31.365 22.757 31.357 22.766 C 31.339 22.863 31.304 22.968 31.313 23.065 C 31.313 23.117 31.356 23.17 31.339 23.231 C 31.322 23.285 31.313 23.337 31.304 23.416 C 31.295 23.372 31.287 23.355 31.287 23.328 C 31.278 23.328 31.199 23.319 31.19 23.319 C 31.181 23.372 31.251 23.425 31.242 23.469 C 31.234 23.478 31.225 23.478 31.207 23.487 L 30.918 23.064 C 30.689 22.731 30.461 22.396 30.233 22.053 C 30.171 21.966 30.118 21.878 30.074 21.79 C 29.802 21.324 29.504 20.875 29.17 20.445 C 28.916 20.12 28.713 19.768 28.476 19.426 C 28.258 19.101 28.038 18.785 27.819 18.459 C 27.74 18.354 27.643 18.257 27.573 18.143 C 27.345 17.782 27.143 17.413 26.915 17.053 C 26.722 16.753 26.511 16.463 26.309 16.173 C 26.239 16.076 26.169 15.971 26.099 15.866 C 26.09 15.849 26.082 15.831 26.082 15.805 C 26.064 15.612 26.046 15.418 26.037 15.234 C 26.037 15.058 26.055 14.882 26.055 14.698 L 26.055 14.539 C 26.055 14.495 26.063 14.46 26.063 14.416 C 26.072 14.408 26.081 14.39 26.089 14.381 C 25.835 14.381 25.571 14.372 25.317 14.381 C 25.15 14.39 25.062 14.319 24.948 14.196 C 24.615 13.818 24.369 13.387 24.08 12.983 C 23.807 12.596 23.526 12.218 23.245 11.84 C 23.017 11.533 22.789 11.234 22.561 10.926 C 22.306 10.575 22.061 10.223 21.797 9.871 C 21.48 9.45 21.156 9.028 20.831 8.606 C 20.681 8.413 20.514 8.228 20.348 8.026 C 20.462 8.044 20.568 8.061 20.673 8.07 L 21.094 8.097 C 21.411 8.123 21.727 8.14 22.042 8.184 C 22.305 8.219 22.568 8.271 22.841 8.315 C 23.421 8.412 23.991 8.57 24.544 8.755 C 24.869 8.861 25.185 9.001 25.502 9.133 C 26.212 9.424 26.888 9.775 27.555 10.143 C 27.765 10.258 27.889 10.442 28.046 10.61 C 28.275 10.847 28.503 11.084 28.722 11.33 C 28.976 11.621 29.213 11.919 29.459 12.218 C 29.679 12.482 29.906 12.745 30.126 13.009 C 30.196 13.088 30.25 13.185 30.311 13.272 C 30.451 13.484 30.609 13.686 30.732 13.914 C 30.819 14.082 30.871 14.275 30.933 14.46 C 31.021 14.733 31.109 14.996 31.196 15.268 C 31.257 15.47 31.31 15.682 31.354 15.892 C 31.39 16.033 31.381 16.182 31.424 16.323 C 31.478 16.508 31.424 16.709 31.478 16.895 C 31.486 16.912 31.494 16.939 31.504 16.956 C 31.538 16.991 31.564 17.026 31.512 17.079 C 31.504 17.087 31.504 17.122 31.512 17.149 C 31.53 17.132 31.538 17.114 31.556 17.087 C 31.556 17.105 31.564 17.114 31.564 17.122 C 31.564 17.157 31.556 17.193 31.564 17.228 C 31.564 17.245 31.582 17.271 31.59 17.289 C 31.608 17.271 31.626 17.262 31.661 17.236 C 31.74 17.535 31.749 17.834 31.749 18.141 C 31.749 18.431 31.802 18.721 31.679 19.002 C 31.705 18.906 31.643 18.818 31.67 18.73 L 31.673 18.732 Z" fill="#dd3a0a" stroke-width="1.642" style="stroke-width: 0.334;"></path>
  <path d="M 28.194 17.243 C 28.203 17.243 28.212 17.252 28.212 17.252 L 28.203 17.242 C 28.203 17.233 28.203 17.233 28.194 17.242 L 28.194 17.243 Z M 29.581 25.927 C 29.484 25.997 29.388 26.059 29.265 26.085 C 29.255 26.077 29.255 26.068 29.246 26.058 C 29.343 25.997 29.449 25.935 29.545 25.874 C 29.554 25.891 29.572 25.909 29.58 25.927 L 29.581 25.927 Z M 13.123 14.017 C 13.22 13.895 13.317 13.771 13.421 13.649 C 13.43 13.657 13.5 13.675 13.509 13.684 C 13.412 13.807 13.281 13.974 13.184 14.105 C 13.166 14.087 13.14 14.026 13.122 14.018 L 13.123 14.017 Z M 10.63 18.325 C 10.56 18.175 10.49 18.017 10.42 17.867 C 10.429 17.858 10.49 17.832 10.498 17.832 C 10.595 17.972 10.638 18.139 10.71 18.289 C 10.71 18.289 10.639 18.324 10.63 18.324 L 10.63 18.325 Z M 12.869 14.105 C 12.816 14.185 12.763 14.273 12.711 14.352 C 12.702 14.343 12.605 14.386 12.596 14.378 C 12.649 14.299 12.781 14.158 12.834 14.079 C 12.843 14.088 12.851 14.097 12.869 14.106 L 12.869 14.105 Z M 28.642 26.288 C 28.65 26.288 28.65 26.279 28.66 26.279 C 28.721 26.288 28.791 26.296 28.861 26.296 C 28.747 26.376 28.676 26.367 28.641 26.288 L 28.642 26.288 Z M 12.886 14.474 C 12.895 14.447 12.912 14.421 12.93 14.395 C 12.947 14.395 12.973 14.386 12.973 14.386 C 13.009 14.325 13.009 14.281 13.044 14.228 C 13.035 14.22 13.026 14.22 13.017 14.21 C 12.964 14.247 12.912 14.291 12.86 14.325 C 12.877 14.343 12.877 14.352 12.877 14.369 C 12.807 14.36 12.78 14.396 12.745 14.492 C 12.737 14.519 12.692 14.528 12.648 14.563 C 12.64 14.581 12.631 14.624 12.613 14.668 L 12.622 14.677 C 12.605 14.695 12.579 14.704 12.579 14.704 C 12.526 14.756 12.465 14.801 12.412 14.854 C 12.403 14.88 12.394 14.906 12.394 14.932 C 12.456 14.871 12.561 14.756 12.64 14.686 L 12.649 14.695 C 12.684 14.642 12.711 14.59 12.746 14.537 C 12.754 14.546 12.754 14.555 12.763 14.564 C 12.737 14.633 12.711 14.712 12.684 14.783 C 12.666 14.792 12.639 14.81 12.639 14.801 C 12.605 14.827 12.579 14.862 12.543 14.889 L 12.385 14.993 C 12.297 15.073 12.21 15.143 12.113 15.223 C 12.051 15.319 11.99 15.407 11.92 15.521 C 12.025 15.495 12.051 15.539 12.043 15.627 C 12.166 15.644 12.175 15.548 12.21 15.478 C 12.219 15.459 12.227 15.424 12.245 15.415 C 12.323 15.345 12.411 15.283 12.499 15.214 C 12.517 15.196 12.517 15.16 12.517 15.134 C 12.517 15.126 12.472 15.126 12.446 15.116 C 12.525 15.028 12.639 14.88 12.718 14.783 C 12.762 14.756 12.806 14.721 12.806 14.694 C 12.797 14.598 12.859 14.572 12.93 14.537 C 12.894 14.51 12.885 14.484 12.885 14.475 L 12.886 14.474 Z" fill="#dd3735" stroke-width="1.642" style="stroke-width: 0.334;"></path>
  <path d="M 13.065 17.983 C 13.03 18.044 12.995 18.096 12.96 18.158 L 12.908 18.131 C 12.873 18.334 12.75 18.509 12.627 18.544 C 12.662 18.562 12.697 18.58 12.724 18.571 C 12.75 18.562 12.767 18.517 12.785 18.491 L 13.021 18.148 L 13.101 18.017 L 13.066 17.982 L 13.065 17.983 Z M 10.143 21.841 C 10.187 21.841 10.231 21.849 10.283 21.849 C 10.283 21.814 10.328 21.823 10.328 21.788 L 10.354 21.788 C 10.354 21.832 10.363 21.867 10.363 21.912 L 10.179 21.912 C 10.169 21.902 10.134 21.849 10.143 21.841 Z M 10.073 21.437 C 10.047 21.41 10.003 21.384 10.003 21.358 C 9.994 21.323 10.021 21.279 10.047 21.235 C 10.065 21.297 10.073 21.349 10.091 21.411 C 10.082 21.42 10.073 21.428 10.073 21.437 Z M 10.292 20.874 C 10.328 20.963 10.363 21.06 10.398 21.147 C 10.39 21.147 10.337 21.174 10.328 21.182 C 10.293 21.095 10.249 20.998 10.214 20.91 C 10.222 20.901 10.275 20.874 10.293 20.874 L 10.292 20.874 Z M 29.831 29.277 C 29.875 29.26 29.927 29.251 29.998 29.234 C 29.919 29.295 29.857 29.339 29.805 29.392 C 29.796 29.383 29.788 29.374 29.779 29.374 C 29.796 29.339 29.814 29.312 29.831 29.277 Z M 19.043 10.705 C 19.095 10.67 19.14 10.643 19.192 10.608 L 19.209 10.626 C 19.156 10.696 19.113 10.766 19.051 10.854 C 19.042 10.794 19.042 10.758 19.033 10.714 C 19.024 10.714 19.033 10.714 19.042 10.706 L 19.043 10.705 Z M 21.614 15.152 C 21.693 15.117 21.773 15.082 21.869 15.038 C 21.861 15.09 21.861 15.126 21.861 15.162 C 21.834 15.152 21.799 15.143 21.772 15.143 C 21.719 15.152 21.623 15.223 21.579 15.231 C 21.571 15.231 21.614 15.162 21.614 15.152 Z M 28.199 22.606 C 28.216 22.694 28.383 22.737 28.216 22.825 C 28.243 22.843 28.268 22.852 28.295 22.87 C 28.295 22.879 28.286 22.897 28.278 22.905 C 28.26 22.914 28.225 22.931 28.207 22.922 C 28.198 22.922 28.18 22.887 28.18 22.87 C 28.18 22.79 28.19 22.711 28.198 22.606 L 28.199 22.606 Z" fill="#dd3735" stroke-width="1.642" style="stroke-width: 0.334;"></path>
</svg>