<svg version="1.0" xmlns="http://www.w3.org/2000/svg" width="260.000000pt" height="260.000000pt" viewBox="0 0 260.000000 260.000000" preserveAspectRatio="xMidYMid meet">
  <g transform="matrix(0.470198, 0, 0, 0.489292, 9.629172, 4.741322)" style="">
    <path class="st0" d="M502.774,221.7c0-109.2-88.53-197.729-197.729-197.729c-43.089,0-82.928,13.83-115.412,37.225 c63.915,4.943,131.847,38.619,184.149,97.488c53.544,60.28,73.426,136.009,63.839,215.107 C478.369,335.448,502.774,274.354,502.774,221.7z" style="fill: oklch(0.662 0.179 23.3);"></path>
    <path class="st0" d="M173.399,386.897c-41.275-49.044-64.884-121.098-59.561-199.669c5.445-80.44,57.733-156.186,124.848-184.945 C178.763-7.309,105.882,14.155,68.335,51.067c-77.869,76.56-78.937,201.752-2.391,279.626 C96.16,361.419,133.943,380.129,173.399,386.897z" style="fill: oklch(0.662 0.179 23.3);"></path>
    <path class="st0" d="M246.736,405.277c-78.978,16.225-163.847-12.311-204.594-50.662c4.792,59.923,39.929,104.532,85.531,130.86 c94.568,54.604,215.501,22.197,270.1-72.368c21.545-37.323,29.492-78.74,25.474-118.567 C387.005,347.419,323.873,389.417,246.736,405.277z" style="fill: oklch(0.662 0.179 23.3);"></path>
    <path class="st0" d="M176.363,95.756c-23.968,9.584-40.743,81.495-31.16,119.838c67.111-100.661,179.764-50.331,179.764-50.331 C296.208,122.12,210.262,82.195,176.363,95.756z" style="fill: oklch(0.662 0.179 23.3);"></path>
    <path class="st0" d="M194.885,372.307c20.289,15.966,90.944-5.462,119.368-32.943c-120.74-7.777-133.48-130.502-133.48-130.502 C157.799,255.34,166.194,349.734,194.885,372.307z" style="fill: oklch(0.662 0.179 23.3);"></path>
    <path class="st0" d="M247.259,294.657c45.951,19.738,130.476,7.071,146.428-21.536c11.283-20.212-19.484-86.849-49.016-112.729 C356.86,276.438,247.259,294.657,247.259,294.657z" style="fill: oklch(0.662 0.179 23.3);"></path>
    <path class="st0" d="M 255.465 174.856 C 222.786 181.443 203.987 247.636 231.494 258.746 C 293.908 283.955 330.529 159.724 255.465 174.856 Z" style="fill: oklch(0.662 0.179 23.3);"></path>
  </g>
</svg>