<svg xmlns="http://www.w3.org/2000/svg" fill="none" viewBox="0 0 200.514 33">
  <g fill-rule="evenodd" clip-path="url(#prefix__clip0)" clip-rule="evenodd" transform="matrix(1, 0, 0, 1, -15.522739, 4.309624)">
    <path d="M 63.763 4.566 Q 62.989 3.969 61.706 3.969 Q 59.544 3.969 58.191 6.175 Q 56.837 8.381 56.837 11.879 L 56.837 20.826 L 54.728 20.826 L 54.728 2.351 L 56.837 2.351 L 56.837 6.342 L 56.907 6.342 Q 57.558 4.285 58.885 3.151 Q 60.212 2.017 61.97 2.017 Q 63.007 2.017 63.763 2.299 Z M 73.377 21.283 Q 70.741 21.283 68.728 20.105 Q 66.715 18.928 65.625 16.757 Q 64.536 14.586 64.536 11.738 Q 64.536 7.221 66.988 4.575 Q 69.44 1.93 73.676 1.93 Q 77.667 1.93 79.969 4.496 Q 82.272 7.062 82.272 11.597 Q 82.272 15.957 79.881 18.62 Q 77.491 21.283 73.377 21.283 Z M 73.536 3.793 Q 70.424 3.793 68.596 5.893 Q 66.768 7.994 66.768 11.721 Q 66.768 15.254 68.579 17.328 Q 70.389 19.402 73.483 19.402 Q 76.629 19.402 78.343 17.346 Q 80.057 15.289 80.057 11.615 Q 80.057 7.801 78.37 5.797 Q 76.682 3.793 73.536 3.793 Z M 86.824 18.928 L 98.338 18.928 L 98.338 20.826 L 83.502 20.826 L 83.502 20.088 L 95.262 4.25 L 84.451 4.25 L 84.451 2.351 L 98.654 2.351 L 98.654 2.949 Z M 100.257 17.627 Q 101.135 18.383 102.507 18.892 Q 103.878 19.402 105.108 19.402 Q 109.292 19.402 109.292 16.203 Q 109.292 15.465 108.94 14.893 Q 108.589 14.322 107.885 13.83 Q 107.182 13.338 105.178 12.459 Q 102.436 11.316 101.373 10.121 Q 100.309 8.926 100.309 7.062 Q 100.309 4.83 102.111 3.38 Q 103.913 1.93 106.69 1.93 Q 109.081 1.93 110.856 2.844 L 110.856 5.129 Q 108.764 3.793 106.444 3.793 Q 104.669 3.793 103.596 4.663 Q 102.524 5.533 102.524 6.904 Q 102.524 8.205 103.306 8.987 Q 104.089 9.769 106.374 10.701 Q 109.344 11.949 110.425 13.118 Q 111.507 14.287 111.507 16.097 Q 111.507 18.453 109.67 19.859 Q 107.833 21.265 104.88 21.265 Q 102.173 21.265 100.257 20.07 Z M 125.551 20.826 L 125.551 17.433 L 125.48 17.433 Q 124.584 19.244 123.002 20.264 Q 121.42 21.283 119.416 21.283 Q 116.797 21.283 115.223 19.833 Q 113.65 18.383 113.65 16.01 Q 113.65 11.017 119.926 10.103 L 125.551 9.277 Q 125.551 3.793 121.332 3.793 Q 118.203 3.793 115.355 6.183 L 115.355 3.81 Q 118.291 1.93 121.525 1.93 Q 124.549 1.93 126.122 3.661 Q 127.695 5.392 127.695 8.82 L 127.695 20.826 Z M 115.865 15.887 Q 115.865 17.451 116.929 18.427 Q 117.992 19.402 119.767 19.402 Q 122.246 19.402 123.898 17.6 Q 125.551 15.799 125.551 12.951 L 125.551 11.123 L 120.717 11.808 Q 117.974 12.195 116.92 13.127 Q 115.865 14.058 115.865 15.887 Z M 133.163 18.928 L 144.677 18.928 L 144.677 20.826 L 129.841 20.826 L 129.841 20.088 L 141.601 4.25 L 130.79 4.25 L 130.79 2.351 L 144.994 2.351 L 144.994 2.949 Z M 155.136 21.283 Q 152.499 21.283 150.486 20.105 Q 148.474 18.928 147.384 16.757 Q 146.294 14.586 146.294 11.738 Q 146.294 7.221 148.746 4.575 Q 151.198 1.93 155.435 1.93 Q 159.425 1.93 161.728 4.496 Q 164.03 7.062 164.03 11.597 Q 164.03 15.957 161.64 18.62 Q 159.249 21.283 155.136 21.283 Z M 155.294 3.793 Q 152.183 3.793 150.354 5.893 Q 148.526 7.994 148.526 11.721 Q 148.526 15.254 150.337 17.328 Q 152.147 19.402 155.241 19.402 Q 158.388 19.402 160.102 17.346 Q 161.815 15.289 161.815 11.615 Q 161.815 7.801 160.128 5.797 Q 158.44 3.793 155.294 3.793 Z M 167.37 20.826 L 167.37 -6.508 L 169.514 -6.508 L 169.514 20.826 Z M 181.926 20.615 Q 180.678 21.213 179.378 21.213 Q 174.983 21.213 174.983 16.097 L 174.983 4.25 L 171.731 4.25 L 171.731 2.351 L 174.983 2.351 L 174.983 -2.324 L 177.145 -3.028 L 177.145 2.351 L 181.926 2.351 L 181.926 4.25 L 177.145 4.25 L 177.145 15.781 Q 177.145 17.68 177.743 18.514 Q 178.341 19.349 179.764 19.349 Q 180.907 19.349 181.926 18.681 Z M 195.144 20.826 L 195.144 17.433 L 195.074 17.433 Q 194.177 19.244 192.595 20.264 Q 191.013 21.283 189.009 21.283 Q 186.39 21.283 184.817 19.833 Q 183.243 18.383 183.243 16.01 Q 183.243 11.017 189.519 10.103 L 195.144 9.277 Q 195.144 3.793 190.925 3.793 Q 187.796 3.793 184.949 6.183 L 184.949 3.81 Q 187.884 1.93 191.118 1.93 Q 194.142 1.93 195.715 3.661 Q 197.288 5.392 197.288 8.82 L 197.288 20.826 Z M 185.458 15.887 Q 185.458 17.451 186.522 18.427 Q 187.585 19.402 189.361 19.402 Q 191.839 19.402 193.492 17.6 Q 195.144 15.799 195.144 12.951 L 195.144 11.123 L 190.31 11.808 Q 187.568 12.195 186.513 13.127 Q 185.458 14.058 185.458 15.887 Z M 214.024 20.826 L 214.024 10.174 Q 214.024 3.793 209.419 3.793 Q 206.94 3.793 205.314 5.647 Q 203.688 7.502 203.688 10.262 L 203.688 20.826 L 201.544 20.826 L 201.544 2.351 L 203.688 2.351 L 203.688 5.603 L 203.759 5.603 Q 205.798 1.93 209.964 1.93 Q 212.987 1.93 214.578 3.898 Q 216.169 5.867 216.169 9.576 L 216.169 20.826 Z" style="fill: rgb(51, 51, 51); text-transform: lowercase; text-wrap-mode: nowrap;"></path>
  </g>
  <defs>
    <clipPath id="prefix__clip0">
      <path fill="#fff" d="M0 0h262v32.4H0z"></path>
    </clipPath>
  </defs>
  <g transform="matrix(0.066863, 0, 0, 0.064453, -0.447259, -0.052524)" style="">
    <path class="st0" d="M502.774,221.7c0-109.2-88.53-197.729-197.729-197.729c-43.089,0-82.928,13.83-115.412,37.225 c63.915,4.943,131.847,38.619,184.149,97.488c53.544,60.28,73.426,136.009,63.839,215.107 C478.369,335.448,502.774,274.354,502.774,221.7z" style="fill: oklch(0.662 0.179 23.3);"></path>
    <path class="st0" d="M173.399,386.897c-41.275-49.044-64.884-121.098-59.561-199.669c5.445-80.44,57.733-156.186,124.848-184.945 C178.763-7.309,105.882,14.155,68.335,51.067c-77.869,76.56-78.937,201.752-2.391,279.626 C96.16,361.419,133.943,380.129,173.399,386.897z" style="fill: oklch(0.662 0.179 23.3);"></path>
    <path class="st0" d="M246.736,405.277c-78.978,16.225-163.847-12.311-204.594-50.662c4.792,59.923,39.929,104.532,85.531,130.86 c94.568,54.604,215.501,22.197,270.1-72.368c21.545-37.323,29.492-78.74,25.474-118.567 C387.005,347.419,323.873,389.417,246.736,405.277z" style="fill: oklch(0.662 0.179 23.3);"></path>
    <path class="st0" d="M176.363,95.756c-23.968,9.584-40.743,81.495-31.16,119.838c67.111-100.661,179.764-50.331,179.764-50.331 C296.208,122.12,210.262,82.195,176.363,95.756z" style="fill: oklch(0.662 0.179 23.3);"></path>
    <path class="st0" d="M194.885,372.307c20.289,15.966,90.944-5.462,119.368-32.943c-120.74-7.777-133.48-130.502-133.48-130.502 C157.799,255.34,166.194,349.734,194.885,372.307z" style="fill: oklch(0.662 0.179 23.3);"></path>
    <path class="st0" d="M247.259,294.657c45.951,19.738,130.476,7.071,146.428-21.536c11.283-20.212-19.484-86.849-49.016-112.729 C356.86,276.438,247.259,294.657,247.259,294.657z" style="fill: oklch(0.662 0.179 23.3);"></path>
    <path class="st0" d="M 255.465 174.856 C 222.786 181.443 203.987 247.636 231.494 258.746 C 293.908 283.955 330.529 159.724 255.465 174.856 Z" style="fill: oklch(0.662 0.179 23.3);"></path>
  </g>
</svg>